<svg width="74" height="58" viewBox="0 0 74 58" fill="none" xmlns="http://www.w3.org/2000/svg">
<g clip-path="url(#clip0_6_146)" filter="url(#filter0_d_6_146)">
<path d="M3.99999 48.5029V1.49692C4.36199 0.60892 5.21999 -0.00608008 6.21999 -0.00608008C6.27999 -0.00608008 6.33999 -0.00408008 6.39899 0.000919921H6.39099H67.727C67.784 -0.00408008 67.851 -0.00708008 67.918 -0.00708008C69.158 -0.00708008 70.163 0.99792 70.163 2.23792C70.163 2.30492 70.16 2.37192 70.154 2.43692L70.155 2.42892C70.155 11.9029 70.155 21.3779 70.155 30.8339C70.155 36.4749 70.155 42.1149 70.155 47.7559C70.163 47.8219 70.167 47.8989 70.167 47.9769C70.167 49.0759 69.276 49.9669 68.177 49.9669C68.147 49.9669 68.117 49.9659 68.087 49.9649H68.091H6.64499C6.54299 49.9789 6.42599 49.9879 6.30599 49.9879C5.28699 49.9879 4.40799 49.3869 4.00499 48.5209L3.99799 48.5049L3.99999 48.5029ZM66.066 4.14392H8.12499V32.0919L8.76399 31.6539L19.991 23.6039C20.388 23.2059 20.936 22.9599 21.543 22.9599C22.15 22.9599 22.698 23.2059 23.095 23.6039L34.888 32.0559C36.713 33.3699 38.539 34.6849 40.364 35.9629C40.696 36.2189 41.117 36.3739 41.575 36.3739C42.476 36.3739 43.237 35.7759 43.482 34.9549L43.486 34.9409C43.537 34.7709 43.566 34.5759 43.566 34.3729C43.566 33.5999 43.141 32.9259 42.511 32.5729L42.501 32.5679C39.9577 30.7793 37.469 28.9843 35.035 27.1829L34.469 26.7629L34.798 26.5069L44.966 19.2049C45.363 18.8069 45.911 18.5609 46.518 18.5609C47.125 18.5609 47.673 18.8069 48.07 19.2049L65.412 31.6549L66.051 32.0749L66.066 4.14392Z" fill="#BDAE82"/>
<path d="M30.962 9.34597C33.987 9.34597 36.438 11.798 36.438 14.822C36.484 15.09 36.511 15.399 36.511 15.713C36.511 18.738 34.059 21.189 31.035 21.189C28.011 21.189 25.559 18.737 25.559 15.713C25.559 15.398 25.586 15.09 25.637 14.789L25.632 14.821C25.632 14.82 25.632 14.82 25.632 14.819C25.632 11.846 28.001 9.42597 30.955 9.34497H30.963L30.962 9.34597Z" fill="#CCBA8D"/>
</g>
<defs>
<filter id="filter0_d_6_146" x="0" y="0" width="74" height="58" filterUnits="userSpaceOnUse" color-interpolation-filters="sRGB">
<feFlood flood-opacity="0" result="BackgroundImageFix"/>
<feColorMatrix in="SourceAlpha" type="matrix" values="0 0 0 0 0 0 0 0 0 0 0 0 0 0 0 0 0 0 127 0" result="hardAlpha"/>
<feOffset dy="4"/>
<feGaussianBlur stdDeviation="2"/>
<feComposite in2="hardAlpha" operator="out"/>
<feColorMatrix type="matrix" values="0 0 0 0 0 0 0 0 0 0 0 0 0 0 0 0 0 0 0.25 0"/>
<feBlend mode="normal" in2="BackgroundImageFix" result="effect1_dropShadow_6_146"/>
<feBlend mode="normal" in="SourceGraphic" in2="effect1_dropShadow_6_146" result="shape"/>
</filter>
<clipPath id="clip0_6_146">
<rect width="66" height="50" fill="white" transform="translate(4)"/>
</clipPath>
</defs>
</svg>
